<svg width="840" height="640" viewBox="0 0 840 640" fill="none" xmlns="http://www.w3.org/2000/svg">
  <rect width="840" height="640" rx="36" fill="#FFF3CF"/>
  <path d="M80 458C143 380 208 352 275 374C371 405 408 330 500 314C594 298 669 338 760 242V584H80V458Z" fill="#2EC4B6"/>
  <circle cx="186" cy="214" r="92" fill="#F24F35"/>
  <circle cx="184" cy="210" r="68" fill="#FFD166"/>
  <path d="M135 219C154 248 213 251 235 218" stroke="#141414" stroke-width="12" stroke-linecap="round"/>
  <circle cx="160" cy="193" r="12" fill="#141414"/>
  <circle cx="213" cy="193" r="12" fill="#141414"/>
  <path d="M122 148C94 124 92 87 119 70C145 54 182 73 183 112" stroke="#141414" stroke-width="14" stroke-linecap="round"/>
  <path d="M250 152C284 133 293 96 269 75C246 55 207 68 199 106" stroke="#141414" stroke-width="14" stroke-linecap="round"/>
  <rect x="346" y="102" width="160" height="238" rx="54" fill="#F7F7F7" stroke="#141414" stroke-width="12"/>
  <path d="M373 152H479" stroke="#2EC4B6" stroke-width="18" stroke-linecap="round"/>
  <path d="M383 205H471" stroke="#F24F35" stroke-width="18" stroke-linecap="round"/>
  <circle cx="397" cy="270" r="10" fill="#141414"/>
  <circle cx="456" cy="270" r="10" fill="#141414"/>
  <path d="M401 303C417 290 436 290 453 303" stroke="#141414" stroke-width="10" stroke-linecap="round"/>
  <path d="M596 202C596 139 648 88 711 88C750 88 782 120 782 159C782 221 734 281 656 281C621 281 596 251 596 202Z" fill="#3A7D44"/>
  <path d="M640 194C666 221 710 222 739 194" stroke="#141414" stroke-width="12" stroke-linecap="round"/>
  <circle cx="659" cy="165" r="11" fill="#141414"/>
  <circle cx="720" cy="165" r="11" fill="#141414"/>
  <path d="M611 97C631 57 672 43 710 61" stroke="#141414" stroke-width="13" stroke-linecap="round"/>
  <path d="M188 374L142 436" stroke="#141414" stroke-width="14" stroke-linecap="round"/>
  <path d="M223 374L270 436" stroke="#141414" stroke-width="14" stroke-linecap="round"/>
  <path d="M426 340V422" stroke="#141414" stroke-width="14" stroke-linecap="round"/>
  <path d="M384 395L468 395" stroke="#141414" stroke-width="14" stroke-linecap="round"/>
  <path d="M673 282L636 370" stroke="#141414" stroke-width="14" stroke-linecap="round"/>
  <path d="M714 280L756 370" stroke="#141414" stroke-width="14" stroke-linecap="round"/>
  <rect x="118" y="478" width="606" height="58" rx="14" fill="#141414" fill-opacity="0.16"/>
</svg>
